<svg width="169" height="40" viewBox="0 0 169 40" fill="none" xmlns="http://www.w3.org/2000/svg">
<path fill-rule="evenodd" clip-rule="evenodd" d="M15.9587 18.1441L10.8613 17.524C9.30675 17.3037 8.27998 17.0398 7.78754 16.7374C7.29511 16.4387 7.0508 15.9856 7.0508 15.3812C7.0508 14.6175 7.35333 14.0713 7.95405 13.7379C8.55857 13.4044 9.74912 13.2379 11.5279 13.2379C12.9894 13.2379 14.1098 13.3505 14.8851 13.5714C15.6638 13.7961 16.1655 14.1323 16.4587 14.5479C16.7967 15.026 16.8619 15.7381 16.869 16.1499C16.8717 16.3348 17.0241 16.4779 17.2086 16.4779H23.663C23.8556 16.4779 24.0091 16.3229 24.0036 16.1303C23.9797 15.2578 23.7974 12.9415 22.5791 11.4749C21.5501 10.2357 20.2383 9.19995 18.4122 8.54935C16.5828 7.89766 14.3693 7.57236 11.7646 7.57236C9.03577 7.57236 6.80267 7.91343 5.07398 8.59559C3.34148 9.27774 2.06605 10.1846 1.24061 11.3079C0.414625 12.4361 0 13.6992 0 15.0946C0 17.1291 0.643158 18.6827 1.93056 19.7641C3.21742 20.8412 5.05059 21.5081 7.43114 21.7638L14.1484 22.5738C15.5441 22.7636 16.4821 22.9921 16.9588 23.2636C17.4355 23.5307 17.6722 23.9996 17.6722 24.6665C17.6722 25.3677 17.362 25.8828 16.7455 26.2163C16.1252 26.5498 14.8617 26.7162 12.9584 26.7162C10.9233 26.7162 9.53854 26.4926 8.74085 26.1662C7.69395 25.7376 7.60798 24.6518 7.58404 23.8989C7.5786 23.7156 7.42788 23.5731 7.2445 23.5731H0.756336C0.567524 23.5731 0.416801 23.7232 0.415169 23.9114C0.405375 24.9287 0.642614 28.0191 3.67068 30.1188C5.83467 31.6191 8.9079 32.3818 12.9083 32.3818C15.3852 32.3818 17.4975 32.0717 19.2458 31.4521C20.9902 30.8358 22.3391 29.9676 23.2924 28.8595C24.2463 27.7471 24.7229 26.4453 24.7229 24.9532C24.7229 22.9845 24.0564 21.4461 22.7227 20.3337C21.3896 19.2218 19.1331 18.4928 15.9587 18.1441Z" fill="#DACAFF"/>
<path d="M69.6719 7.57237C72.2766 7.57237 74.5564 8.0176 76.5098 8.90538C78.4593 9.79261 80.0223 11.0764 81.0566 12.8351C82.7646 15.7399 82.6256 20.5474 82.4863 21.4308H63.4619C63.2622 21.4308 63.0998 21.6082 63.1172 21.8067C63.2527 23.3248 63.6959 24.4898 64.4814 25.2628C65.4348 26.2006 67.1327 26.6661 69.5791 26.6661C71.6717 26.6661 73.1494 26.3985 74.0059 25.8556C74.8659 25.317 75.292 24.5413 75.292 23.5226V23.047H82.4365V23.5733C82.4365 25.2868 81.9131 26.8094 80.8662 28.1427C79.8199 29.4754 78.3503 30.5177 76.459 31.2618C74.571 32.0059 72.354 32.3819 69.8154 32.3819C67.1797 32.3819 64.8451 31.9362 62.8145 31.0489C60.7798 30.1612 59.2098 28.7937 58.0977 26.9532C56.985 25.1125 56.4307 22.7948 56.4307 20.0011C56.4307 17.4623 56.9849 15.261 58.0977 13.4044C59.2098 11.5484 60.7568 10.111 62.7412 9.09483C64.7261 8.07988 67.0358 7.57239 69.6719 7.57237ZM69.5273 13.1446C64.0149 13.1447 63.3984 16.101 63.1943 17.2648C63.1579 17.472 63.3256 17.6671 63.5361 17.6671H75.3955C75.5973 17.667 75.7621 17.4869 75.7393 17.2862C75.5913 15.9731 75.264 13.1446 69.5273 13.1446Z" fill="#DACAFF"/>
<path fill-rule="evenodd" clip-rule="evenodd" d="M124.442 8.69238C123.345 7.94441 121.891 7.57232 120.085 7.57232C118.495 7.57232 117.147 7.86662 116.034 8.45194C114.922 9.04108 114.042 9.85107 113.39 10.8819C112.739 11.9128 112.301 13.0791 112.08 14.3814H111.654V8.38939C111.654 8.20171 111.501 8.0494 111.313 8.0494H105.374C105.186 8.0494 105.033 8.20171 105.033 8.38939V31.5647C105.033 31.7529 105.186 31.9052 105.374 31.9052H111.836C112.025 31.9052 112.177 31.7529 112.177 31.5647V18.094C112.177 16.5709 112.503 15.447 113.154 14.7143C113.801 13.9859 114.922 13.6176 116.511 13.6176C117.972 13.6176 118.995 13.9124 119.585 14.5016C120.17 15.0864 120.465 16.0476 120.465 17.3809V19.5166C120.465 19.7048 120.617 19.8571 120.805 19.8571H127.268C127.456 19.8571 127.608 19.7048 127.608 19.5166V15.9045C127.608 14.3504 127.353 12.9436 126.845 11.6919C126.337 10.4364 125.539 9.43655 124.442 8.69238Z" fill="#DACAFF"/>
<path fill-rule="evenodd" clip-rule="evenodd" d="M129.787 2.42997C129.787 5.5334 132.304 7.57225 135.408 7.57225L135.407 8.02647H130.128C129.939 8.02647 129.787 8.17879 129.787 8.36701V31.5423C129.787 31.7305 129.939 31.8829 130.128 31.8829H136.59C136.779 31.8829 136.931 31.7305 136.931 31.5423V8.04932V8.02647V2.42997V0.340533C136.931 0.152315 136.779 0 136.59 0H130.128C129.939 0 129.787 0.152315 129.787 0.340533V2.42997Z" fill="#DACAFF"/>
<path fill-rule="evenodd" clip-rule="evenodd" d="M27.3066 2.42997C27.3066 5.5334 29.8232 7.57225 32.9275 7.57225L32.9264 8.02647H27.6473C27.459 8.02647 27.3066 8.17879 27.3066 8.36701V31.5423C27.3066 31.7305 27.459 31.8829 27.6473 31.8829H34.1099C34.2981 31.8829 34.4505 31.7305 34.4505 31.5423V8.04932V8.02647V2.42997V0.340533C34.4505 0.152315 34.2981 0 34.1099 0H27.6473C27.459 0 27.3066 0.152315 27.3066 0.340533V2.42997Z" fill="#DACAFF"/>
<path fill-rule="evenodd" clip-rule="evenodd" d="M47.3086 2.42997V0.340533C47.3086 0.152315 47.1562 0 46.968 0H40.5048C40.3171 0 40.1642 0.152315 40.1642 0.340533V2.42997C40.1642 5.5334 42.6808 7.57225 45.785 7.57225L45.7845 8.02158H36.7449C36.5567 8.02158 36.4043 8.17389 36.4043 8.36157V13.6105C36.4043 13.7987 36.5567 13.951 36.7449 13.951H40.1642V15.4502V23.2863C40.1642 26.3016 40.9592 28.4911 42.5486 29.8592C44.1336 31.223 46.3275 31.9057 49.1184 31.9057H54.6859C54.8736 31.9057 55.0265 31.7528 55.0265 31.5646V25.8164C55.0265 25.6287 54.8736 25.4764 54.6859 25.4764H50.7393C49.5025 25.4764 48.6189 25.2784 48.0954 24.8829C47.572 24.4841 47.3124 23.6818 47.3124 22.4768V14.2915C47.3124 14.1033 47.4648 13.951 47.653 13.951H54.6859C54.8736 13.951 55.0265 13.7987 55.0265 13.6105V8.36157C55.0265 8.17389 54.8736 8.02158 54.6859 8.02158H47.6492C47.461 8.02158 47.3086 7.86926 47.3086 7.68104V2.42997Z" fill="#DACAFF"/>
<path fill-rule="evenodd" clip-rule="evenodd" d="M94.6455 2.42997V0.340533C94.6455 0.152315 94.4932 0 94.3049 0H87.8423C87.654 0 87.5017 0.152315 87.5017 0.340533V2.42997C87.5017 5.5334 90.0177 7.57225 93.122 7.57225L93.1214 8.02158H84.0818C83.8941 8.02158 83.7412 8.17389 83.7412 8.36157V13.6105C83.7412 13.7987 83.8941 13.951 84.0818 13.951H87.5017V15.4502V23.2863C87.5017 26.3016 88.2961 28.4911 89.8855 29.8592C91.4705 31.223 93.665 31.9057 96.4558 31.9057H102.023C102.211 31.9057 102.363 31.7528 102.363 31.5646V25.8164C102.363 25.6287 102.211 25.4764 102.023 25.4764H98.0762C96.8394 25.4764 95.9558 25.2784 95.4323 24.8829C94.9089 24.4841 94.6493 23.6818 94.6493 22.4768V14.2915C94.6493 14.1033 94.8017 13.951 94.9899 13.951H102.023C102.211 13.951 102.363 13.7987 102.363 13.6105V8.36157C102.363 8.17389 102.211 8.02158 102.023 8.02158H94.9861C94.7979 8.02158 94.6455 7.86926 94.6455 7.68104V2.42997Z" fill="#DACAFF"/>
<path d="M157.316 7.57254C159.762 7.57254 161.832 8.08004 163.534 9.095C165.232 10.1106 166.527 11.5485 167.415 13.4046C168.302 15.2611 168.748 17.4622 168.748 20.0003C168.748 22.5074 168.31 24.6893 167.438 26.5491C166.566 28.4056 165.294 29.8436 163.628 30.8587C161.961 31.8742 159.937 32.3811 157.554 32.3811C154.794 32.3811 152.642 31.7539 151.1 30.5022C149.56 29.2467 148.584 27.5723 148.173 25.4759H147.839V39.6604C147.839 39.8481 147.687 40.0003 147.499 40.0003H141.036C140.848 40.0003 140.695 39.8481 140.695 39.6604V8.38992C140.695 8.2017 140.848 8.0491 141.036 8.0491H146.976C147.163 8.0491 147.315 8.2017 147.315 8.38992V14.5716H147.789C148.204 12.2847 149.195 10.5484 150.766 9.35867C152.339 8.16522 154.522 7.57259 157.316 7.57254ZM155.131 14.1448C152.813 14.1448 151.065 14.5794 149.891 15.4514C148.716 16.3273 148.13 17.8263 148.13 19.9544V20.3343C148.13 21.6668 148.398 22.7484 148.94 23.5735C149.479 24.3991 150.266 24.9836 151.297 25.3323C152.328 25.6815 153.592 25.8557 155.085 25.8557C156.639 25.8557 157.91 25.6661 158.895 25.2864C159.879 24.9067 160.608 24.2862 161.085 23.43C161.562 22.5732 161.798 21.4302 161.798 20.0003C161.798 18.5089 161.562 17.3422 161.085 16.5012C160.608 15.6602 159.879 15.0552 158.895 14.6907C157.91 14.3268 156.654 14.1448 155.131 14.1448Z" fill="#DACAFF"/>
</svg>
